<svg id="Слой_1" data-name="Слой 1" xmlns="http://www.w3.org/2000/svg" viewBox="0 0 459.68 459.68"><defs><style>.cls-1{fill:#ff9505;}.cls-2{fill:#fff;}</style></defs><title>Лого RSMn</title><rect class="cls-1" width="459.68" height="459.68" rx="81.27"/><circle class="cls-2" cx="48.98" cy="100.85" r="23.79"/><circle class="cls-2" cx="48.98" cy="233.85" r="23.79"/><circle class="cls-2" cx="48.98" cy="366.85" r="23.79"/><path class="cls-2" d="M124.74,164.68h89.69A88.29,88.29,0,0,1,234.8,167a70.85,70.85,0,0,1,19,7.61A38.62,38.62,0,0,1,268.4,190q5.5,10.08,5.5,23.89a46.45,46.45,0,0,1-6.67,24.58,40.19,40.19,0,0,1-17.91,16.16q11.24,2.81,17.09,15a78.09,78.09,0,0,1,7.26,26.22l1.64,17.57q1.17,13.33,4.21,18H229q-2.12-4.46-3-15.69l-.7-9.37a119.08,119.08,0,0,0-1.76-13.58,37,37,0,0,0-3.86-10.3,16.53,16.53,0,0,0-8.43-7.5q-5.62-2.34-14.28-2.34H175.32v58.78H124.74Zm50.58,38.64v34.19h28.1q20.84,0,20.84-17.33,0-16.86-23.65-16.86Z" transform="translate(-21.1 -21.23)"/><path class="cls-2" d="M429.39,215.26h-48a14.4,14.4,0,0,0-5.85-11.71q-5.62-4.22-15.45-4.21-16.87,0-16.86,10.3c0,1.88.93,3.67,2.81,5.39a22.31,22.31,0,0,0,7.84,4.33q5,1.75,9.25,2.93t9.48,2.22c3.52.7,5.58,1.14,6.21,1.29q9.82,2.58,16.86,4.92a102,102,0,0,1,15.22,6.67,51.46,51.46,0,0,1,13.23,9.6,45.63,45.63,0,0,1,12.06,31.5q0,26-19.67,41.33t-53.16,15.33q-34.89,0-55-16t-20.61-43.9H339q1.17,21.54,26,21.54,9.6,0,15.22-3.75a11.53,11.53,0,0,0,5.62-10.07,8.64,8.64,0,0,0-3.28-6.79q-3-2.56-11.7-5.62t-20.49-6.44q-11.83-3.39-14.87-4.56a142.41,142.41,0,0,1-16.63-6.79,61.47,61.47,0,0,1-12.64-8.55,31.84,31.84,0,0,1-9-12.88,49.81,49.81,0,0,1-2.92-17.91q0-23.41,18.61-37.82t48.82-14.4q31.85,0,49.53,14.17T429.39,215.26Z" transform="translate(-21.1 -21.23)"/></svg>