<svg width="89" height="32" viewBox="0 0 89 32" fill="none" xmlns="http://www.w3.org/2000/svg">
<path d="M44.3286 9.83962L48.5608 9.57508C48.6531 10.2602 48.8399 10.7818 49.1211 11.1399C49.5804 11.7203 50.2351 12.0105 51.0851 12.0105C51.7193 12.0105 52.2087 11.8624 52.5532 11.5664C52.711 11.4434 52.8391 11.2869 52.9283 11.1082C53.0174 10.9296 53.0653 10.7333 53.0684 10.5338C53.0658 10.3426 53.0212 10.1542 52.9378 9.98198C52.8543 9.80971 52.7341 9.6577 52.5854 9.5366C52.2635 9.24373 51.5042 8.96636 50.3075 8.70449C48.3564 8.2684 46.9649 7.688 46.1332 6.96331C45.7284 6.62567 45.4052 6.20158 45.1876 5.72251C44.9699 5.24345 44.8634 4.72171 44.8759 4.19603C44.879 3.45315 45.1031 2.72785 45.5198 2.11175C45.9958 1.41735 46.6682 0.879409 47.4517 0.566174C48.3102 0.191003 49.4908 0.00341797 50.9933 0.00341797C52.8328 0.00341797 54.2355 0.344385 55.2014 1.02632C56.1673 1.70825 56.742 2.79208 56.9256 4.2778L52.7319 4.5215C52.6246 3.88018 52.3906 3.41095 52.03 3.11381C51.6694 2.81666 51.1757 2.66863 50.549 2.66969C50.0322 2.66969 49.6426 2.78032 49.3819 2.99837C49.2587 3.09271 49.1591 3.21418 49.0909 3.35326C49.0228 3.49235 48.9879 3.64526 48.989 3.80002C48.993 3.92011 49.0239 4.03779 49.0797 4.14436C49.1354 4.25092 49.2145 4.34365 49.311 4.41568C49.5203 4.60487 50.0177 4.78123 50.8033 4.94477C52.748 5.36162 54.1432 5.78383 54.9889 6.21137C55.8346 6.63892 56.4464 7.16854 56.8241 7.80023C57.2097 8.44104 57.4087 9.17602 57.3989 9.92299C57.4035 10.8275 57.1373 11.7128 56.6342 12.4658C56.1106 13.251 55.3657 13.8645 54.4931 14.2294C53.5755 14.6303 52.4196 14.8307 51.0255 14.8307C48.5775 14.8307 46.8818 14.3614 45.9384 13.423C44.995 12.4845 44.4584 11.2901 44.3286 9.83962ZM1.00937 14.5902V0.245515H8.42429C9.7991 0.245515 10.8498 0.362556 11.5764 0.596637C12.2921 0.8243 12.9108 1.28366 13.3343 1.90172C13.7952 2.58772 14.0299 3.39981 14.0056 4.22489C14.0243 4.9449 13.8462 5.65644 13.4905 6.28352C13.1491 6.86483 12.6656 7.35072 12.0851 7.69602C11.597 7.96414 11.0703 8.15558 10.5235 8.26359C10.9326 8.38357 11.3224 8.5612 11.681 8.79107C11.9475 9.0117 12.1874 9.26243 12.3958 9.5382C12.6302 9.81229 12.8378 10.1081 13.0156 10.4216L15.1695 14.5902H10.142L7.76587 10.202C7.46429 9.6344 7.19599 9.26564 6.96095 9.09569C6.64067 8.87464 6.25911 8.75862 5.86948 8.76381H5.47346V14.5902H1.00937ZM5.47346 6.05425H7.35375C7.75168 6.02466 8.1461 5.95919 8.53215 5.85865C8.82064 5.80352 9.07795 5.64279 9.25336 5.40812C9.43886 5.17107 9.53767 4.87812 9.53347 4.57761C9.54558 4.37811 9.51202 4.17847 9.43533 3.99378C9.35864 3.80908 9.24082 3.64414 9.09077 3.51142C8.7967 3.26345 8.24345 3.13946 7.43102 3.13946H5.47346V6.05425ZM0 26.865L4.23227 26.6021C4.32457 27.2872 4.51131 27.8088 4.79249 28.1669C5.24647 28.7473 5.90275 29.0375 6.76133 29.0375C7.39561 29.0375 7.885 28.8889 8.2295 28.5917C8.38727 28.4688 8.51542 28.3123 8.60456 28.1336C8.6937 27.955 8.74156 27.7587 8.74465 27.5592C8.74182 27.368 8.69713 27.1797 8.61372 27.0075C8.53031 26.8353 8.41018 26.6832 8.2617 26.562C7.93973 26.2691 7.18042 25.9923 5.98378 25.7315C4.03265 25.2932 2.64121 24.7128 1.80946 23.9903C1.40477 23.6522 1.08163 23.2279 0.863986 22.7485C0.646344 22.2692 0.539775 21.7473 0.552175 21.2214C0.555739 20.4786 0.779778 19.7534 1.19611 19.1371C1.6721 18.4427 2.34447 17.9048 3.12792 17.5915C3.9865 17.2164 5.16705 17.0288 6.66957 17.0288C8.50908 17.0288 9.91179 17.3698 10.8777 18.0517C11.8436 18.7336 12.4183 19.8175 12.6018 21.3032L8.41624 21.5485C8.30892 20.9072 8.07496 20.4374 7.71435 20.1392C7.35375 19.841 6.8606 19.6945 6.23491 19.6999C5.71869 19.6999 5.32964 19.8068 5.06778 20.0205C4.94459 20.1149 4.84502 20.2363 4.77687 20.3754C4.70872 20.5145 4.67385 20.6674 4.67498 20.8222C4.67865 20.9425 4.7095 21.0605 4.76523 21.1674C4.82097 21.2743 4.90017 21.3673 4.99694 21.4395C5.20622 21.6286 5.70366 21.8045 6.48927 21.9669C8.43395 22.3838 9.82915 22.806 10.6749 23.2335C11.5206 23.6611 12.1323 24.1907 12.5101 24.8224C12.8954 25.4633 13.0943 26.1982 13.0848 26.9452C13.0896 27.8497 12.8234 28.735 12.3201 29.488C11.7965 30.2731 11.0516 30.8867 10.179 31.2516C9.26141 31.6524 8.10555 31.8528 6.71142 31.8528C4.26339 31.8528 2.5677 31.3836 1.62433 30.4451C0.680962 29.5067 0.139519 28.3133 0 26.865ZM26.2404 25.7411L30.1394 26.9147C29.9238 27.8998 29.502 28.8286 28.9015 29.6403C28.3543 30.3575 27.6346 30.926 26.8087 31.2933C25.9737 31.6642 24.9112 31.8496 23.6212 31.8496C22.0564 31.8496 20.7782 31.6236 19.7865 31.1714C18.7949 30.7193 17.9363 29.9225 17.2108 28.7809C16.4896 27.6405 16.1295 26.1809 16.1306 24.4023C16.1306 22.0316 16.7638 20.2087 18.0302 18.9335C19.2966 17.6583 21.0889 17.0213 23.4071 17.0224C25.2219 17.0224 26.6477 17.3879 27.6844 18.119C28.7212 18.8501 29.4917 19.9724 29.9962 21.4859L26.0681 22.3565C25.9759 22.0153 25.8303 21.6907 25.6367 21.3946C25.3988 21.0656 25.086 20.7975 24.7239 20.6122C24.3487 20.4259 23.9341 20.3319 23.5149 20.338C22.5072 20.338 21.735 20.742 21.1984 21.5501C20.7905 22.1497 20.5872 23.0908 20.5882 24.3735C20.5882 25.9618 20.8308 27.051 21.3159 27.641C21.801 28.231 22.482 28.5255 23.3588 28.5244C24.2088 28.5244 24.8527 28.2866 25.2906 27.8109C25.7285 27.3353 26.0451 26.6453 26.2404 25.7411ZM33.5668 17.2709H38.0148V22.286H42.8765V17.2709H47.3438V31.6091H42.8765V25.8132H38.0148V31.6139H33.5668V17.2709ZM50.1127 24.4488C50.1127 22.1102 50.7674 20.2878 52.0767 18.9816C53.3861 17.6755 55.2105 17.0234 57.5502 17.0256C59.9456 17.0256 61.7916 17.6669 63.088 18.9495C64.3845 20.2322 65.0343 22.0263 65.0375 24.3318C65.0375 26.0088 64.7542 27.3834 64.1876 28.4555C63.6361 29.5134 62.7817 30.3845 61.7325 30.9582C60.6593 31.5546 59.3253 31.8528 57.7305 31.8528C56.1078 31.8528 54.7662 31.5952 53.7059 31.0801C52.6165 30.5424 51.715 29.6904 51.1189 28.635C50.447 27.5213 50.1116 26.1259 50.1127 24.4488ZM54.5607 24.4697C54.5607 25.918 54.829 26.958 55.3656 27.5897C55.9022 28.2214 56.6374 28.5372 57.5711 28.5372C58.5274 28.5372 59.2673 28.2278 59.7911 27.6089C60.3148 26.9901 60.5767 25.8784 60.5767 24.2741C60.5767 22.9241 60.303 21.9375 59.7557 21.3144C59.2083 20.6912 58.4667 20.3802 57.5309 20.3813C57.124 20.3667 56.719 20.4439 56.3463 20.6072C55.9736 20.7704 55.6427 21.0155 55.3785 21.324C54.8344 21.9653 54.5618 23.0139 54.5607 24.4697Z" fill="#AAAAAA"/>
<path d="M63.1508 24.4488C63.1508 22.1102 63.8054 20.2877 65.1148 18.9816C66.4241 17.6754 68.2486 17.0234 70.5882 17.0256C72.9858 17.0256 74.8323 17.6669 76.1277 18.9495C77.4231 20.2322 78.0708 22.0268 78.0708 24.3334C78.0708 26.0104 77.788 27.385 77.2224 28.4571C76.6705 29.5147 75.8161 30.3856 74.7674 30.9598C73.6941 31.5562 72.3601 31.8544 70.7653 31.8544C69.1415 31.8544 67.8 31.5968 66.7407 31.0817C65.6512 30.5436 64.7493 29.6917 64.1521 28.6366C63.4845 27.5218 63.1508 26.1259 63.1508 24.4488ZM67.6004 24.4697C67.6004 25.918 67.8687 26.958 68.4053 27.5897C68.9419 28.2214 69.6781 28.5378 70.614 28.5388C71.5702 28.5388 72.3102 28.2294 72.8339 27.6105C73.3577 26.9917 73.6195 25.88 73.6195 24.2757C73.6195 22.9257 73.3464 21.9391 72.8001 21.316C72.2539 20.6928 71.5123 20.3818 70.5753 20.3829C70.1677 20.3673 69.7619 20.4438 69.3883 20.6068C69.0147 20.7698 68.683 21.015 68.4182 21.324C67.8719 21.9653 67.5993 23.0139 67.6004 24.4697Z" fill="#AAAAAA"/>
<path d="M77.6072 17.2709H82.0568V28.0787H89V31.6059H77.6072V17.2709Z" fill="#AAAAAA"/>
</svg>
